{"title":"Nordwand.2008.BluRay.x264.1080p.AC3-5.1-PeN.mkv","uid":6619914,"size":4695304938,"categoryP":"video","categoryS":"hd___movies","magnet":"?xt=urn:btih:bba2e1d3cdad7a189980ac277bea55d56b429da2&amp;dn=Nordwand.2008.BluRay.x264.1080p.AC3-5.1-PeN.mkv&amp;tr=udp%3A%2F%2Ftracker.openbittorrent.com%3A80&amp;tr=udp%3A%2F%2Fopen.demonii.com%3A1337&amp;tr=udp%3A%2F%2Ftracker.coppersurfer.tk%3A6969&amp;tr=udp%3A%2F%2Fexodus.desync.com%3A6969","seeders":0,"leechers":1,"uploader":"penandpike","files":1,"time":1313941149,"description":"Nordwand.2008.BluRay.x264.1080p.AC3-5.1-PeN.mkv\n   General\n      Complete name : F:\\Movies\\Nordwand.2008.BluRay.x264.1080p.AC3-5.1-PeN.mkv\n      Format : Matroska\n      File size : 4.37 GiB\n      Duration : 2h 6mn\n      Overall bit rate : 4 965 Kbps\n      Movie name : Nordwand - iwok\n      Encoded date : UTC 2010-12-05 18:25:10\n      Writing application : mkvmerge v2.9.8 ('C'est le bon') built on Aug 13 2009 12:49:06\n      Writing library : libebml v0.7.7 + libmatroska v0.8.1\n   Video #1\n      ID : 1\n      Format : AVC\n      Format/Info : Advanced Video Codec\n      Format profile : &lt;a class=&quot;__cf_email__&quot; href=&quot;/cdn-cgi/l/email-protection&quot; data-cfemail=&quot;2c64454b446c6018021c&quot;&gt;[email&amp;#160;protected]&lt;/a&gt;&lt;script cf-hash='f9e31' type=&quot;text/javascript&quot;&gt;\n/* &lt;![CDATA[ */!function(){try{var t=&quot;currentScript&quot;in document?document.currentScript:function(){for(var t=document.getElementsByTagName(&quot;script&quot;),e=t.length;e--;)if(t[e].getAttribute(&quot;cf-hash&quot;))return t[e]}();if(t&amp;&amp;t.previousSibling){var e,r,n,i,c=t.previousSibling,a=c.getAttribute(&quot;data-cfemail&quot;);if(a){for(e=&quot;&quot;,r=parseInt(a.substr(0,2),16),n=2;a.length-n;n+=2)i=parseInt(a.substr(n,2),16)^r,e+=String.fromCharCode(i);e=document.createTextNode(e),c.parentNode.replaceChild(e,c)}}}catch(u){}}();/* ]]&gt; */&lt;/script&gt;\n      Format settings, CABAC : Yes\n      Format settings, ReFrames : 5 frames\n      Muxing mode : Container profile=&lt;a class=&quot;__cf_email__&quot; href=&quot;/cdn-cgi/l/email-protection&quot; data-cfemail=&quot;93c6fdf8fdfce4fdd3a7bda3&quot;&gt;[email&amp;#160;protected]&lt;/a&gt;&lt;script cf-hash='f9e31' type=&quot;text/javascript&quot;&gt;\n/* &lt;![CDATA[ */!function(){try{var t=&quot;currentScript&quot;in document?document.currentScript:function(){for(var t=document.getElementsByTagName(&quot;script&quot;),e=t.length;e--;)if(t[e].getAttribute(&quot;cf-hash&quot;))return t[e]}();if(t&amp;&amp;t.previousSibling){var e,r,n,i,c=t.previousSibling,a=c.getAttribute(&quot;data-cfemail&quot;);if(a){for(e=&quot;&quot;,r=parseInt(a.substr(0,2),16),n=2;a.length-n;n+=2)i=parseInt(a.substr(n,2),16)^r,e+=String.fromCharCode(i);e=document.createTextNode(e),c.parentNode.replaceChild(e,c)}}}catch(u){}}();/* ]]&gt; */&lt;/script&gt;\n      Codec ID : V_MPEG4/ISO/AVC\n      Duration : 2h 6mn\n      Bit rate : 4 482 Kbps\n      Nominal bit rate : 4 579 Kbps\n      Width : 1 920 pixels\n      Height : 812 pixels\n      Display aspect ratio : 2.35:1\n      Frame rate : 24.000 fps\n      Resolution : 24 bits\n      Colorimetry : 4:2:0\n      Scan type : Progressive\n      Bits/(Pixel*Frame) : 0.120\n      Stream size : 3.95 GiB (90%)\n      Writing library : x264 core 65\n      Encoding settings : cabac=1 / ref=5 / deblock=1:-2:-2 / analyse=0x3:0x133 / me=umh / subme=9 / psy_rd=1.0:1.0 / mixed_ref=1 / me_range=32 / chroma_me=1 / trellis=1 / 8x8dct=1 / cqm=0 / deadzone=21,11 / chroma_qp_offset=-4 / threads=3 / nr=0 / decimate=1 / mbaff=0 / bframes=6 / b_pyramid=1 / b_adapt=1 / b_bias=0 / direct=3 / wpredb=1 / keyint=241 / keyint_min=25 / scenecut=40(pre) / rc=2pass / bitrate=4579 / ratetol=1.0 / qcomp=0.60 / qpmin=10 / qpmax=51 / qpstep=4 / cplxblur=20.0 / qblur=0.5 / ip_ratio=1.40 / pb_ratio=1.30 / aq=1:1.00\n      Language : English\n      colour_primaries : BT.709-5, BT.1361, IEC 61966-2-4, SMPTE RP177\n      transfer_characteristics : BT.709-5, BT.1361\n      matrix_coefficients : BT.709-5, BT.1361, IEC 61966-2-4 709, SMPTE RP177\n   Audio #2\n      ID : 2\n      Format : AC-3\n      Format/Info : Audio Coding 3\n      Codec ID : A_AC3\n      Duration : 2h 6mn\n      Bit rate mode : Constant\n      Bit rate : 384 Kbps\n      Channel(s) : 6 channels\n      Channel positions : Front: L C R, Surround: L R, LFE\n      Sampling rate : 48.0 KHz\n      Stream size : 346 MiB (8%)\n      Language : German\n   Text #3\n      ID : 3\n      Format : UTF-8\n      Codec ID : S_TEXT/UTF8\n      Codec ID/Info : UTF-8 Plain Text\n      Title : English\n      Language : English\n   Text #4\n      ID : 4\n      Format : UTF-8\n      Codec ID : S_TEXT/UTF8\n      Codec ID/Info : UTF-8 Plain Text\n      Language : Bulgarian\n   Text #5\n      ID : 5\n      Format : UTF-8\n      Codec ID : S_TEXT/UTF8\n      Codec ID/Info : UTF-8 Plain Text\n      Title : German\n      Language : German","torrent":{"xt":"urn:btih:bba2e1d3cdad7a189980ac277bea55d56b429da2","amp;dn":"Nordwand.2008.BluRay.x264.1080p.AC3-5.1-PeN.mkv","amp;tr":["udp%3A%2F%2Ftracker.openbittorrent.com%3A80","udp%3A%2F%2Fopen.demonii.com%3A1337","udp%3A%2F%2Ftracker.coppersurfer.tk%3A6969","udp%3A%2F%2Fexodus.desync.com%3A6969"],"infoHash":"bba2e1d3cdad7a189980ac277bea55d56b429da2","infoHashBuffer":{"type":"Buffer","data":[187,162,225,211,205,173,122,24,153,128,172,39,123,234,85,213,107,66,157,162]},"announce":[],"urlList":[]}}